<svg width="17" height="15" viewBox="0 0 17 15" fill="none" xmlns="http://www.w3.org/2000/svg">
<path d="M7.56 1.0875C7.647 1.2267 7.70573 1.38168 7.73284 1.54358C7.75995 1.70548 7.7549 1.87113 7.71799 2.03108C7.68108 2.19103 7.61303 2.34214 7.51772 2.47579C7.4224 2.60944 7.3017 2.723 7.1625 2.81C5.64112 3.75762 4.43251 5.13231 3.6875 6.7625C4.43986 6.69959 5.19369 6.86523 5.85036 7.23777C6.50704 7.6103 7.03597 8.17237 7.36797 8.85044C7.69997 9.52851 7.81956 10.291 7.71111 11.0382C7.60265 11.7853 7.2712 12.4823 6.76011 13.038C6.24902 13.5937 5.5821 13.9822 4.84661 14.1526C4.11112 14.3231 3.3413 14.2676 2.63789 13.9933C1.93447 13.7191 1.3302 13.2389 0.904154 12.6156C0.478104 11.9924 0.250109 11.255 0.25 10.5V10.4663C0.251359 10.3695 0.255528 10.2728 0.2625 10.1763C0.27375 9.98875 0.29625 9.72625 0.34 9.40375C0.4275 8.7625 0.59875 7.87875 0.945 6.88625C1.635 4.89875 3.0325 2.4425 5.8375 0.690003C5.9767 0.603002 6.13168 0.544271 6.29357 0.517163C6.45547 0.490054 6.62113 0.4951 6.78108 0.532011C6.94102 0.568922 7.09214 0.636976 7.22578 0.732288C7.35943 0.8276 7.473 0.948302 7.56 1.0875ZM16.31 1.0875C16.397 1.2267 16.4557 1.38168 16.4828 1.54358C16.5099 1.70548 16.5049 1.87113 16.468 2.03108C16.4311 2.19103 16.363 2.34214 16.2677 2.47579C16.1724 2.60944 16.0517 2.723 15.9125 2.81C14.3911 3.75762 13.1825 5.13231 12.4375 6.7625C13.1899 6.69959 13.9437 6.86523 14.6004 7.23777C15.257 7.6103 15.786 8.17237 16.118 8.85044C16.45 9.52851 16.5696 10.291 16.4611 11.0382C16.3526 11.7853 16.0212 12.4823 15.5101 13.038C14.999 13.5937 14.3321 13.9822 13.5966 14.1526C12.8611 14.3231 12.0913 14.2676 11.3879 13.9933C10.6845 13.7191 10.0802 13.2389 9.65415 12.6156C9.2281 11.9924 9.00011 11.255 9 10.5V10.4663C9.00136 10.3695 9.00553 10.2728 9.0125 10.1763C9.02375 9.98875 9.04625 9.72625 9.09 9.40375C9.1775 8.7625 9.34875 7.87875 9.695 6.88625C10.385 4.89875 11.7825 2.4425 14.5875 0.690003C14.7267 0.603002 14.8817 0.544271 15.0436 0.517163C15.2055 0.490054 15.3711 0.4951 15.5311 0.532011C15.691 0.568922 15.8421 0.636976 15.9758 0.732288C16.1094 0.8276 16.223 0.948302 16.31 1.0875Z" fill="#424142"/>
<path d="M7.56 1.0875C7.647 1.2267 7.70573 1.38168 7.73284 1.54358C7.75995 1.70548 7.7549 1.87113 7.71799 2.03108C7.68108 2.19103 7.61303 2.34214 7.51772 2.47579C7.4224 2.60944 7.3017 2.723 7.1625 2.81C5.64112 3.75762 4.43251 5.13231 3.6875 6.7625C4.43986 6.69959 5.19369 6.86523 5.85036 7.23777C6.50704 7.6103 7.03597 8.17237 7.36797 8.85044C7.69997 9.52851 7.81956 10.291 7.71111 11.0382C7.60265 11.7853 7.2712 12.4823 6.76011 13.038C6.24902 13.5937 5.5821 13.9822 4.84661 14.1526C4.11112 14.3231 3.3413 14.2676 2.63789 13.9933C1.93447 13.7191 1.3302 13.2389 0.904154 12.6156C0.478104 11.9924 0.250109 11.255 0.25 10.5V10.4663C0.251359 10.3695 0.255528 10.2728 0.2625 10.1763C0.27375 9.98875 0.29625 9.72625 0.34 9.40375C0.4275 8.7625 0.59875 7.87875 0.945 6.88625C1.635 4.89875 3.0325 2.4425 5.8375 0.690003C5.9767 0.603002 6.13168 0.544271 6.29357 0.517163C6.45547 0.490054 6.62113 0.4951 6.78108 0.532011C6.94102 0.568922 7.09214 0.636976 7.22578 0.732288C7.35943 0.8276 7.473 0.948302 7.56 1.0875ZM16.31 1.0875C16.397 1.2267 16.4557 1.38168 16.4828 1.54358C16.5099 1.70548 16.5049 1.87113 16.468 2.03108C16.4311 2.19103 16.363 2.34214 16.2677 2.47579C16.1724 2.60944 16.0517 2.723 15.9125 2.81C14.3911 3.75762 13.1825 5.13231 12.4375 6.7625C13.1899 6.69959 13.9437 6.86523 14.6004 7.23777C15.257 7.6103 15.786 8.17237 16.118 8.85044C16.45 9.52851 16.5696 10.291 16.4611 11.0382C16.3526 11.7853 16.0212 12.4823 15.5101 13.038C14.999 13.5937 14.3321 13.9822 13.5966 14.1526C12.8611 14.3231 12.0913 14.2676 11.3879 13.9933C10.6845 13.7191 10.0802 13.2389 9.65415 12.6156C9.2281 11.9924 9.00011 11.255 9 10.5V10.4663C9.00136 10.3695 9.00553 10.2728 9.0125 10.1763C9.02375 9.98875 9.04625 9.72625 9.09 9.40375C9.1775 8.7625 9.34875 7.87875 9.695 6.88625C10.385 4.89875 11.7825 2.4425 14.5875 0.690003C14.7267 0.603002 14.8817 0.544271 15.0436 0.517163C15.2055 0.490054 15.3711 0.4951 15.5311 0.532011C15.691 0.568922 15.8421 0.636976 15.9758 0.732288C16.1094 0.8276 16.223 0.948302 16.31 1.0875Z" fill="black" fill-opacity="0.2"/>
<path d="M7.56 1.0875C7.647 1.2267 7.70573 1.38168 7.73284 1.54358C7.75995 1.70548 7.7549 1.87113 7.71799 2.03108C7.68108 2.19103 7.61303 2.34214 7.51772 2.47579C7.4224 2.60944 7.3017 2.723 7.1625 2.81C5.64112 3.75762 4.43251 5.13231 3.6875 6.7625C4.43986 6.69959 5.19369 6.86523 5.85036 7.23777C6.50704 7.6103 7.03597 8.17237 7.36797 8.85044C7.69997 9.52851 7.81956 10.291 7.71111 11.0382C7.60265 11.7853 7.2712 12.4823 6.76011 13.038C6.24902 13.5937 5.5821 13.9822 4.84661 14.1526C4.11112 14.3231 3.3413 14.2676 2.63789 13.9933C1.93447 13.7191 1.3302 13.2389 0.904154 12.6156C0.478104 11.9924 0.250109 11.255 0.25 10.5V10.4663C0.251359 10.3695 0.255528 10.2728 0.2625 10.1763C0.27375 9.98875 0.29625 9.72625 0.34 9.40375C0.4275 8.7625 0.59875 7.87875 0.945 6.88625C1.635 4.89875 3.0325 2.4425 5.8375 0.690003C5.9767 0.603002 6.13168 0.544271 6.29357 0.517163C6.45547 0.490054 6.62113 0.4951 6.78108 0.532011C6.94102 0.568922 7.09214 0.636976 7.22578 0.732288C7.35943 0.8276 7.473 0.948302 7.56 1.0875ZM16.31 1.0875C16.397 1.2267 16.4557 1.38168 16.4828 1.54358C16.5099 1.70548 16.5049 1.87113 16.468 2.03108C16.4311 2.19103 16.363 2.34214 16.2677 2.47579C16.1724 2.60944 16.0517 2.723 15.9125 2.81C14.3911 3.75762 13.1825 5.13231 12.4375 6.7625C13.1899 6.69959 13.9437 6.86523 14.6004 7.23777C15.257 7.6103 15.786 8.17237 16.118 8.85044C16.45 9.52851 16.5696 10.291 16.4611 11.0382C16.3526 11.7853 16.0212 12.4823 15.5101 13.038C14.999 13.5937 14.3321 13.9822 13.5966 14.1526C12.8611 14.3231 12.0913 14.2676 11.3879 13.9933C10.6845 13.7191 10.0802 13.2389 9.65415 12.6156C9.2281 11.9924 9.00011 11.255 9 10.5V10.4663C9.00136 10.3695 9.00553 10.2728 9.0125 10.1763C9.02375 9.98875 9.04625 9.72625 9.09 9.40375C9.1775 8.7625 9.34875 7.87875 9.695 6.88625C10.385 4.89875 11.7825 2.4425 14.5875 0.690003C14.7267 0.603002 14.8817 0.544271 15.0436 0.517163C15.2055 0.490054 15.3711 0.4951 15.5311 0.532011C15.691 0.568922 15.8421 0.636976 15.9758 0.732288C16.1094 0.8276 16.223 0.948302 16.31 1.0875Z" fill="black" fill-opacity="0.2"/>
<path d="M7.56 1.0875C7.647 1.2267 7.70573 1.38168 7.73284 1.54358C7.75995 1.70548 7.7549 1.87113 7.71799 2.03108C7.68108 2.19103 7.61303 2.34214 7.51772 2.47579C7.4224 2.60944 7.3017 2.723 7.1625 2.81C5.64112 3.75762 4.43251 5.13231 3.6875 6.7625C4.43986 6.69959 5.19369 6.86523 5.85036 7.23777C6.50704 7.6103 7.03597 8.17237 7.36797 8.85044C7.69997 9.52851 7.81956 10.291 7.71111 11.0382C7.60265 11.7853 7.2712 12.4823 6.76011 13.038C6.24902 13.5937 5.5821 13.9822 4.84661 14.1526C4.11112 14.3231 3.3413 14.2676 2.63789 13.9933C1.93447 13.7191 1.3302 13.2389 0.904154 12.6156C0.478104 11.9924 0.250109 11.255 0.25 10.5V10.4663C0.251359 10.3695 0.255528 10.2728 0.2625 10.1763C0.27375 9.98875 0.29625 9.72625 0.34 9.40375C0.4275 8.7625 0.59875 7.87875 0.945 6.88625C1.635 4.89875 3.0325 2.4425 5.8375 0.690003C5.9767 0.603002 6.13168 0.544271 6.29357 0.517163C6.45547 0.490054 6.62113 0.4951 6.78108 0.532011C6.94102 0.568922 7.09214 0.636976 7.22578 0.732288C7.35943 0.8276 7.473 0.948302 7.56 1.0875ZM16.31 1.0875C16.397 1.2267 16.4557 1.38168 16.4828 1.54358C16.5099 1.70548 16.5049 1.87113 16.468 2.03108C16.4311 2.19103 16.363 2.34214 16.2677 2.47579C16.1724 2.60944 16.0517 2.723 15.9125 2.81C14.3911 3.75762 13.1825 5.13231 12.4375 6.7625C13.1899 6.69959 13.9437 6.86523 14.6004 7.23777C15.257 7.6103 15.786 8.17237 16.118 8.85044C16.45 9.52851 16.5696 10.291 16.4611 11.0382C16.3526 11.7853 16.0212 12.4823 15.5101 13.038C14.999 13.5937 14.3321 13.9822 13.5966 14.1526C12.8611 14.3231 12.0913 14.2676 11.3879 13.9933C10.6845 13.7191 10.0802 13.2389 9.65415 12.6156C9.2281 11.9924 9.00011 11.255 9 10.5V10.4663C9.00136 10.3695 9.00553 10.2728 9.0125 10.1763C9.02375 9.98875 9.04625 9.72625 9.09 9.40375C9.1775 8.7625 9.34875 7.87875 9.695 6.88625C10.385 4.89875 11.7825 2.4425 14.5875 0.690003C14.7267 0.603002 14.8817 0.544271 15.0436 0.517163C15.2055 0.490054 15.3711 0.4951 15.5311 0.532011C15.691 0.568922 15.8421 0.636976 15.9758 0.732288C16.1094 0.8276 16.223 0.948302 16.31 1.0875Z" fill="black" fill-opacity="0.2"/>
<path d="M7.56 1.0875C7.647 1.2267 7.70573 1.38168 7.73284 1.54358C7.75995 1.70548 7.7549 1.87113 7.71799 2.03108C7.68108 2.19103 7.61303 2.34214 7.51772 2.47579C7.4224 2.60944 7.3017 2.723 7.1625 2.81C5.64112 3.75762 4.43251 5.13231 3.6875 6.7625C4.43986 6.69959 5.19369 6.86523 5.85036 7.23777C6.50704 7.6103 7.03597 8.17237 7.36797 8.85044C7.69997 9.52851 7.81956 10.291 7.71111 11.0382C7.60265 11.7853 7.2712 12.4823 6.76011 13.038C6.24902 13.5937 5.5821 13.9822 4.84661 14.1526C4.11112 14.3231 3.3413 14.2676 2.63789 13.9933C1.93447 13.7191 1.3302 13.2389 0.904154 12.6156C0.478104 11.9924 0.250109 11.255 0.25 10.5V10.4663C0.251359 10.3695 0.255528 10.2728 0.2625 10.1763C0.27375 9.98875 0.29625 9.72625 0.34 9.40375C0.4275 8.7625 0.59875 7.87875 0.945 6.88625C1.635 4.89875 3.0325 2.4425 5.8375 0.690003C5.9767 0.603002 6.13168 0.544271 6.29357 0.517163C6.45547 0.490054 6.62113 0.4951 6.78108 0.532011C6.94102 0.568922 7.09214 0.636976 7.22578 0.732288C7.35943 0.8276 7.473 0.948302 7.56 1.0875ZM16.31 1.0875C16.397 1.2267 16.4557 1.38168 16.4828 1.54358C16.5099 1.70548 16.5049 1.87113 16.468 2.03108C16.4311 2.19103 16.363 2.34214 16.2677 2.47579C16.1724 2.60944 16.0517 2.723 15.9125 2.81C14.3911 3.75762 13.1825 5.13231 12.4375 6.7625C13.1899 6.69959 13.9437 6.86523 14.6004 7.23777C15.257 7.6103 15.786 8.17237 16.118 8.85044C16.45 9.52851 16.5696 10.291 16.4611 11.0382C16.3526 11.7853 16.0212 12.4823 15.5101 13.038C14.999 13.5937 14.3321 13.9822 13.5966 14.1526C12.8611 14.3231 12.0913 14.2676 11.3879 13.9933C10.6845 13.7191 10.0802 13.2389 9.65415 12.6156C9.2281 11.9924 9.00011 11.255 9 10.5V10.4663C9.00136 10.3695 9.00553 10.2728 9.0125 10.1763C9.02375 9.98875 9.04625 9.72625 9.09 9.40375C9.1775 8.7625 9.34875 7.87875 9.695 6.88625C10.385 4.89875 11.7825 2.4425 14.5875 0.690003C14.7267 0.603002 14.8817 0.544271 15.0436 0.517163C15.2055 0.490054 15.3711 0.4951 15.5311 0.532011C15.691 0.568922 15.8421 0.636976 15.9758 0.732288C16.1094 0.8276 16.223 0.948302 16.31 1.0875Z" fill="black" fill-opacity="0.2"/>
<path d="M7.56 1.0875C7.647 1.2267 7.70573 1.38168 7.73284 1.54358C7.75995 1.70548 7.7549 1.87113 7.71799 2.03108C7.68108 2.19103 7.61303 2.34214 7.51772 2.47579C7.4224 2.60944 7.3017 2.723 7.1625 2.81C5.64112 3.75762 4.43251 5.13231 3.6875 6.7625C4.43986 6.69959 5.19369 6.86523 5.85036 7.23777C6.50704 7.6103 7.03597 8.17237 7.36797 8.85044C7.69997 9.52851 7.81956 10.291 7.71111 11.0382C7.60265 11.7853 7.2712 12.4823 6.76011 13.038C6.24902 13.5937 5.5821 13.9822 4.84661 14.1526C4.11112 14.3231 3.3413 14.2676 2.63789 13.9933C1.93447 13.7191 1.3302 13.2389 0.904154 12.6156C0.478104 11.9924 0.250109 11.255 0.25 10.5V10.4663C0.251359 10.3695 0.255528 10.2728 0.2625 10.1763C0.27375 9.98875 0.29625 9.72625 0.34 9.40375C0.4275 8.7625 0.59875 7.87875 0.945 6.88625C1.635 4.89875 3.0325 2.4425 5.8375 0.690003C5.9767 0.603002 6.13168 0.544271 6.29357 0.517163C6.45547 0.490054 6.62113 0.4951 6.78108 0.532011C6.94102 0.568922 7.09214 0.636976 7.22578 0.732288C7.35943 0.8276 7.473 0.948302 7.56 1.0875ZM16.31 1.0875C16.397 1.2267 16.4557 1.38168 16.4828 1.54358C16.5099 1.70548 16.5049 1.87113 16.468 2.03108C16.4311 2.19103 16.363 2.34214 16.2677 2.47579C16.1724 2.60944 16.0517 2.723 15.9125 2.81C14.3911 3.75762 13.1825 5.13231 12.4375 6.7625C13.1899 6.69959 13.9437 6.86523 14.6004 7.23777C15.257 7.6103 15.786 8.17237 16.118 8.85044C16.45 9.52851 16.5696 10.291 16.4611 11.0382C16.3526 11.7853 16.0212 12.4823 15.5101 13.038C14.999 13.5937 14.3321 13.9822 13.5966 14.1526C12.8611 14.3231 12.0913 14.2676 11.3879 13.9933C10.6845 13.7191 10.0802 13.2389 9.65415 12.6156C9.2281 11.9924 9.00011 11.255 9 10.5V10.4663C9.00136 10.3695 9.00553 10.2728 9.0125 10.1763C9.02375 9.98875 9.04625 9.72625 9.09 9.40375C9.1775 8.7625 9.34875 7.87875 9.695 6.88625C10.385 4.89875 11.7825 2.4425 14.5875 0.690003C14.7267 0.603002 14.8817 0.544271 15.0436 0.517163C15.2055 0.490054 15.3711 0.4951 15.5311 0.532011C15.691 0.568922 15.8421 0.636976 15.9758 0.732288C16.1094 0.8276 16.223 0.948302 16.31 1.0875Z" fill="black" fill-opacity="0.2"/>
<path d="M7.56 1.0875C7.647 1.2267 7.70573 1.38168 7.73284 1.54358C7.75995 1.70548 7.7549 1.87113 7.71799 2.03108C7.68108 2.19103 7.61303 2.34214 7.51772 2.47579C7.4224 2.60944 7.3017 2.723 7.1625 2.81C5.64112 3.75762 4.43251 5.13231 3.6875 6.7625C4.43986 6.69959 5.19369 6.86523 5.85036 7.23777C6.50704 7.6103 7.03597 8.17237 7.36797 8.85044C7.69997 9.52851 7.81956 10.291 7.71111 11.0382C7.60265 11.7853 7.2712 12.4823 6.76011 13.038C6.24902 13.5937 5.5821 13.9822 4.84661 14.1526C4.11112 14.3231 3.3413 14.2676 2.63789 13.9933C1.93447 13.7191 1.3302 13.2389 0.904154 12.6156C0.478104 11.9924 0.250109 11.255 0.25 10.5V10.4663C0.251359 10.3695 0.255528 10.2728 0.2625 10.1763C0.27375 9.98875 0.29625 9.72625 0.34 9.40375C0.4275 8.7625 0.59875 7.87875 0.945 6.88625C1.635 4.89875 3.0325 2.4425 5.8375 0.690003C5.9767 0.603002 6.13168 0.544271 6.29357 0.517163C6.45547 0.490054 6.62113 0.4951 6.78108 0.532011C6.94102 0.568922 7.09214 0.636976 7.22578 0.732288C7.35943 0.8276 7.473 0.948302 7.56 1.0875ZM16.31 1.0875C16.397 1.2267 16.4557 1.38168 16.4828 1.54358C16.5099 1.70548 16.5049 1.87113 16.468 2.03108C16.4311 2.19103 16.363 2.34214 16.2677 2.47579C16.1724 2.60944 16.0517 2.723 15.9125 2.81C14.3911 3.75762 13.1825 5.13231 12.4375 6.7625C13.1899 6.69959 13.9437 6.86523 14.6004 7.23777C15.257 7.6103 15.786 8.17237 16.118 8.85044C16.45 9.52851 16.5696 10.291 16.4611 11.0382C16.3526 11.7853 16.0212 12.4823 15.5101 13.038C14.999 13.5937 14.3321 13.9822 13.5966 14.1526C12.8611 14.3231 12.0913 14.2676 11.3879 13.9933C10.6845 13.7191 10.0802 13.2389 9.65415 12.6156C9.2281 11.9924 9.00011 11.255 9 10.5V10.4663C9.00136 10.3695 9.00553 10.2728 9.0125 10.1763C9.02375 9.98875 9.04625 9.72625 9.09 9.40375C9.1775 8.7625 9.34875 7.87875 9.695 6.88625C10.385 4.89875 11.7825 2.4425 14.5875 0.690003C14.7267 0.603002 14.8817 0.544271 15.0436 0.517163C15.2055 0.490054 15.3711 0.4951 15.5311 0.532011C15.691 0.568922 15.8421 0.636976 15.9758 0.732288C16.1094 0.8276 16.223 0.948302 16.31 1.0875Z" fill="black" fill-opacity="0.2"/>
<path d="M7.56 1.0875C7.647 1.2267 7.70573 1.38168 7.73284 1.54358C7.75995 1.70548 7.7549 1.87113 7.71799 2.03108C7.68108 2.19103 7.61303 2.34214 7.51772 2.47579C7.4224 2.60944 7.3017 2.723 7.1625 2.81C5.64112 3.75762 4.43251 5.13231 3.6875 6.7625C4.43986 6.69959 5.19369 6.86523 5.85036 7.23777C6.50704 7.6103 7.03597 8.17237 7.36797 8.85044C7.69997 9.52851 7.81956 10.291 7.71111 11.0382C7.60265 11.7853 7.2712 12.4823 6.76011 13.038C6.24902 13.5937 5.5821 13.9822 4.84661 14.1526C4.11112 14.3231 3.3413 14.2676 2.63789 13.9933C1.93447 13.7191 1.3302 13.2389 0.904154 12.6156C0.478104 11.9924 0.250109 11.255 0.25 10.5V10.4663C0.251359 10.3695 0.255528 10.2728 0.2625 10.1763C0.27375 9.98875 0.29625 9.72625 0.34 9.40375C0.4275 8.7625 0.59875 7.87875 0.945 6.88625C1.635 4.89875 3.0325 2.4425 5.8375 0.690003C5.9767 0.603002 6.13168 0.544271 6.29357 0.517163C6.45547 0.490054 6.62113 0.4951 6.78108 0.532011C6.94102 0.568922 7.09214 0.636976 7.22578 0.732288C7.35943 0.8276 7.473 0.948302 7.56 1.0875ZM16.31 1.0875C16.397 1.2267 16.4557 1.38168 16.4828 1.54358C16.5099 1.70548 16.5049 1.87113 16.468 2.03108C16.4311 2.19103 16.363 2.34214 16.2677 2.47579C16.1724 2.60944 16.0517 2.723 15.9125 2.81C14.3911 3.75762 13.1825 5.13231 12.4375 6.7625C13.1899 6.69959 13.9437 6.86523 14.6004 7.23777C15.257 7.6103 15.786 8.17237 16.118 8.85044C16.45 9.52851 16.5696 10.291 16.4611 11.0382C16.3526 11.7853 16.0212 12.4823 15.5101 13.038C14.999 13.5937 14.3321 13.9822 13.5966 14.1526C12.8611 14.3231 12.0913 14.2676 11.3879 13.9933C10.6845 13.7191 10.0802 13.2389 9.65415 12.6156C9.2281 11.9924 9.00011 11.255 9 10.5V10.4663C9.00136 10.3695 9.00553 10.2728 9.0125 10.1763C9.02375 9.98875 9.04625 9.72625 9.09 9.40375C9.1775 8.7625 9.34875 7.87875 9.695 6.88625C10.385 4.89875 11.7825 2.4425 14.5875 0.690003C14.7267 0.603002 14.8817 0.544271 15.0436 0.517163C15.2055 0.490054 15.3711 0.4951 15.5311 0.532011C15.691 0.568922 15.8421 0.636976 15.9758 0.732288C16.1094 0.8276 16.223 0.948302 16.31 1.0875Z" fill="black" fill-opacity="0.2"/>
<path d="M7.56 1.0875C7.647 1.2267 7.70573 1.38168 7.73284 1.54358C7.75995 1.70548 7.7549 1.87113 7.71799 2.03108C7.68108 2.19103 7.61303 2.34214 7.51772 2.47579C7.4224 2.60944 7.3017 2.723 7.1625 2.81C5.64112 3.75762 4.43251 5.13231 3.6875 6.7625C4.43986 6.69959 5.19369 6.86523 5.85036 7.23777C6.50704 7.6103 7.03597 8.17237 7.36797 8.85044C7.69997 9.52851 7.81956 10.291 7.71111 11.0382C7.60265 11.7853 7.2712 12.4823 6.76011 13.038C6.24902 13.5937 5.5821 13.9822 4.84661 14.1526C4.11112 14.3231 3.3413 14.2676 2.63789 13.9933C1.93447 13.7191 1.3302 13.2389 0.904154 12.6156C0.478104 11.9924 0.250109 11.255 0.25 10.5V10.4663C0.251359 10.3695 0.255528 10.2728 0.2625 10.1763C0.27375 9.98875 0.29625 9.72625 0.34 9.40375C0.4275 8.7625 0.59875 7.87875 0.945 6.88625C1.635 4.89875 3.0325 2.4425 5.8375 0.690003C5.9767 0.603002 6.13168 0.544271 6.29357 0.517163C6.45547 0.490054 6.62113 0.4951 6.78108 0.532011C6.94102 0.568922 7.09214 0.636976 7.22578 0.732288C7.35943 0.8276 7.473 0.948302 7.56 1.0875ZM16.31 1.0875C16.397 1.2267 16.4557 1.38168 16.4828 1.54358C16.5099 1.70548 16.5049 1.87113 16.468 2.03108C16.4311 2.19103 16.363 2.34214 16.2677 2.47579C16.1724 2.60944 16.0517 2.723 15.9125 2.81C14.3911 3.75762 13.1825 5.13231 12.4375 6.7625C13.1899 6.69959 13.9437 6.86523 14.6004 7.23777C15.257 7.6103 15.786 8.17237 16.118 8.85044C16.45 9.52851 16.5696 10.291 16.4611 11.0382C16.3526 11.7853 16.0212 12.4823 15.5101 13.038C14.999 13.5937 14.3321 13.9822 13.5966 14.1526C12.8611 14.3231 12.0913 14.2676 11.3879 13.9933C10.6845 13.7191 10.0802 13.2389 9.65415 12.6156C9.2281 11.9924 9.00011 11.255 9 10.5V10.4663C9.00136 10.3695 9.00553 10.2728 9.0125 10.1763C9.02375 9.98875 9.04625 9.72625 9.09 9.40375C9.1775 8.7625 9.34875 7.87875 9.695 6.88625C10.385 4.89875 11.7825 2.4425 14.5875 0.690003C14.7267 0.603002 14.8817 0.544271 15.0436 0.517163C15.2055 0.490054 15.3711 0.4951 15.5311 0.532011C15.691 0.568922 15.8421 0.636976 15.9758 0.732288C16.1094 0.8276 16.223 0.948302 16.31 1.0875Z" fill="black" fill-opacity="0.2"/>
<path d="M7.56 1.0875C7.647 1.2267 7.70573 1.38168 7.73284 1.54358C7.75995 1.70548 7.7549 1.87113 7.71799 2.03108C7.68108 2.19103 7.61303 2.34214 7.51772 2.47579C7.4224 2.60944 7.3017 2.723 7.1625 2.81C5.64112 3.75762 4.43251 5.13231 3.6875 6.7625C4.43986 6.69959 5.19369 6.86523 5.85036 7.23777C6.50704 7.6103 7.03597 8.17237 7.36797 8.85044C7.69997 9.52851 7.81956 10.291 7.71111 11.0382C7.60265 11.7853 7.2712 12.4823 6.76011 13.038C6.24902 13.5937 5.5821 13.9822 4.84661 14.1526C4.11112 14.3231 3.3413 14.2676 2.63789 13.9933C1.93447 13.7191 1.3302 13.2389 0.904154 12.6156C0.478104 11.9924 0.250109 11.255 0.25 10.5V10.4663C0.251359 10.3695 0.255528 10.2728 0.2625 10.1763C0.27375 9.98875 0.29625 9.72625 0.34 9.40375C0.4275 8.7625 0.59875 7.87875 0.945 6.88625C1.635 4.89875 3.0325 2.4425 5.8375 0.690003C5.9767 0.603002 6.13168 0.544271 6.29357 0.517163C6.45547 0.490054 6.62113 0.4951 6.78108 0.532011C6.94102 0.568922 7.09214 0.636976 7.22578 0.732288C7.35943 0.8276 7.473 0.948302 7.56 1.0875ZM16.31 1.0875C16.397 1.2267 16.4557 1.38168 16.4828 1.54358C16.5099 1.70548 16.5049 1.87113 16.468 2.03108C16.4311 2.19103 16.363 2.34214 16.2677 2.47579C16.1724 2.60944 16.0517 2.723 15.9125 2.81C14.3911 3.75762 13.1825 5.13231 12.4375 6.7625C13.1899 6.69959 13.9437 6.86523 14.6004 7.23777C15.257 7.6103 15.786 8.17237 16.118 8.85044C16.45 9.52851 16.5696 10.291 16.4611 11.0382C16.3526 11.7853 16.0212 12.4823 15.5101 13.038C14.999 13.5937 14.3321 13.9822 13.5966 14.1526C12.8611 14.3231 12.0913 14.2676 11.3879 13.9933C10.6845 13.7191 10.0802 13.2389 9.65415 12.6156C9.2281 11.9924 9.00011 11.255 9 10.5V10.4663C9.00136 10.3695 9.00553 10.2728 9.0125 10.1763C9.02375 9.98875 9.04625 9.72625 9.09 9.40375C9.1775 8.7625 9.34875 7.87875 9.695 6.88625C10.385 4.89875 11.7825 2.4425 14.5875 0.690003C14.7267 0.603002 14.8817 0.544271 15.0436 0.517163C15.2055 0.490054 15.3711 0.4951 15.5311 0.532011C15.691 0.568922 15.8421 0.636976 15.9758 0.732288C16.1094 0.8276 16.223 0.948302 16.31 1.0875Z" fill="black" fill-opacity="0.2"/>
<path d="M7.56 1.0875C7.647 1.2267 7.70573 1.38168 7.73284 1.54358C7.75995 1.70548 7.7549 1.87113 7.71799 2.03108C7.68108 2.19103 7.61303 2.34214 7.51772 2.47579C7.4224 2.60944 7.3017 2.723 7.1625 2.81C5.64112 3.75762 4.43251 5.13231 3.6875 6.7625C4.43986 6.69959 5.19369 6.86523 5.85036 7.23777C6.50704 7.6103 7.03597 8.17237 7.36797 8.85044C7.69997 9.52851 7.81956 10.291 7.71111 11.0382C7.60265 11.7853 7.2712 12.4823 6.76011 13.038C6.24902 13.5937 5.5821 13.9822 4.84661 14.1526C4.11112 14.3231 3.3413 14.2676 2.63789 13.9933C1.93447 13.7191 1.3302 13.2389 0.904154 12.6156C0.478104 11.9924 0.250109 11.255 0.25 10.5V10.4663C0.251359 10.3695 0.255528 10.2728 0.2625 10.1763C0.27375 9.98875 0.29625 9.72625 0.34 9.40375C0.4275 8.7625 0.59875 7.87875 0.945 6.88625C1.635 4.89875 3.0325 2.4425 5.8375 0.690003C5.9767 0.603002 6.13168 0.544271 6.29357 0.517163C6.45547 0.490054 6.62113 0.4951 6.78108 0.532011C6.94102 0.568922 7.09214 0.636976 7.22578 0.732288C7.35943 0.8276 7.473 0.948302 7.56 1.0875ZM16.31 1.0875C16.397 1.2267 16.4557 1.38168 16.4828 1.54358C16.5099 1.70548 16.5049 1.87113 16.468 2.03108C16.4311 2.19103 16.363 2.34214 16.2677 2.47579C16.1724 2.60944 16.0517 2.723 15.9125 2.81C14.3911 3.75762 13.1825 5.13231 12.4375 6.7625C13.1899 6.69959 13.9437 6.86523 14.6004 7.23777C15.257 7.6103 15.786 8.17237 16.118 8.85044C16.45 9.52851 16.5696 10.291 16.4611 11.0382C16.3526 11.7853 16.0212 12.4823 15.5101 13.038C14.999 13.5937 14.3321 13.9822 13.5966 14.1526C12.8611 14.3231 12.0913 14.2676 11.3879 13.9933C10.6845 13.7191 10.0802 13.2389 9.65415 12.6156C9.2281 11.9924 9.00011 11.255 9 10.5V10.4663C9.00136 10.3695 9.00553 10.2728 9.0125 10.1763C9.02375 9.98875 9.04625 9.72625 9.09 9.40375C9.1775 8.7625 9.34875 7.87875 9.695 6.88625C10.385 4.89875 11.7825 2.4425 14.5875 0.690003C14.7267 0.603002 14.8817 0.544271 15.0436 0.517163C15.2055 0.490054 15.3711 0.4951 15.5311 0.532011C15.691 0.568922 15.8421 0.636976 15.9758 0.732288C16.1094 0.8276 16.223 0.948302 16.31 1.0875Z" fill="black" fill-opacity="0.2"/>
</svg>
